<?xml version="1.0" standalone="no"?>
<!DOCTYPE svg PUBLIC "-//W3C//DTD SVG 20010904//EN"
 "http://www.w3.org/TR/2001/REC-SVG-20010904/DTD/svg10.dtd">
<svg version="1.0" xmlns="http://www.w3.org/2000/svg"
 width="812.000000pt" height="812.000000pt" viewBox="0 0 812.000000 812.000000"
 preserveAspectRatio="xMidYMid meet">
<metadata>
Created by potrace 1.11, written by Peter Selinger 2001-2013
</metadata>
<g transform="translate(0.000000,812.000000) scale(0.100000,-0.100000)"
fill="#000000" stroke="none">
<path d="M4359 8113 c-3 -7 -219 -141 -264 -163 -5 -3 -21 -12 -35 -21 -20
-13 -159 -96 -292 -174 -47 -28 -145 -87 -162 -98 -72 -45 -126 -77 -130 -77
-3 0 -30 -16 -60 -35 -31 -19 -77 -47 -103 -63 -27 -15 -146 -85 -266 -157
l-217 -130 0 -580 c-1 -1239 -1 -1263 -13 -1267 -7 -2 -434 -3 -949 -3 l-938
2 0 -1223 0 -1223 913 0 c501 1 917 0 922 0 8 -1 11 -312 10 -988 0 -643 3
-990 10 -998 6 -7 30 -24 55 -37 25 -14 69 -39 98 -57 29 -17 54 -31 56 -31 2
0 65 -36 140 -80 76 -44 139 -80 141 -80 3 0 33 -17 67 -38 35 -21 88 -52 118
-69 80 -43 104 -57 110 -63 3 -3 19 -12 35 -20 17 -8 58 -32 93 -52 34 -21 64
-38 66 -38 3 0 211 -118 246 -140 8 -5 35 -20 60 -33 25 -14 104 -59 175 -100
72 -41 132 -73 134 -71 6 5 3 5113 -4 5123 -3 5 -1 12 3 15 8 5 9 29 2 61 -1
6 -2 12 -1 15 2 7 2 682 0 695 -1 6 0 15 1 20 7 32 6 56 -2 61 -4 3 -6 10 -2
15 5 8 8 355 3 384 -1 6 -1 14 0 19 3 12 3 780 0 792 -1 5 -1 11 0 14 7 25 0
885 -7 892 -6 6 -11 6 -13 1z"/>
<path d="M4489 7136 c-1 -1 -3 -88 -4 -193 -2 -169 0 -193 14 -197 9 -2 114
-4 234 -3 l217 2 -1 -2875 c-1 -1581 -1 -2882 0 -2891 1 -13 22 -15 159 -13
86 1 162 2 169 3 9 1 12 145 12 609 0 334 0 761 0 949 l1 342 238 0 c130 0
560 0 954 0 l717 1 0 1209 0 1210 -857 0 c-471 0 -900 0 -952 1 l-95 0 0 923
0 922 -402 1 c-222 0 -404 0 -404 0z"/>
</g>
</svg>
