<?xml version="1.0" encoding="utf-8"?>
<svg version="1.1" id="Layer_1" xmlns="http://www.w3.org/2000/svg" xmlns:xlink="http://www.w3.org/1999/xlink" x="0px" y="0px"
	 viewBox="0 0 24 24" style="enable-background:new 0 0 24 24;" xml:space="preserve">
<style type="text/css">
	.st0{fill-rule:evenodd;clip-rule:evenodd;fill:#7F8C89;}
</style>
<path class="st0" d="M22,22.4H2c-1.1,0-2-0.9-2-2v-12c0-1.1,0.9-2,2-2h1.6l0.1,0.3c0.2,0.6,0.5,1.2,0.9,1.7H2.5C2.2,8.4,2,8.6,2,8.9
	v5.5h20V8.9c0-0.3-0.2-0.5-0.5-0.5h-2.2c0.5-0.6,0.9-1.3,1-2H22c1.1,0,2,0.9,2,2v12C24,21.5,23.1,22.4,22,22.4z M2,17.4v2.5
	c0,0.3,0.2,0.5,0.5,0.5h19c0.3,0,0.5-0.2,0.5-0.5v-2.5H2z M12.2,0c3.5,0,6.4,2.9,6.4,6.4s-2.9,6.4-6.4,6.4S5.9,9.9,5.9,6.4
	S8.7,0,12.2,0z M13.4,2.9h-2.3v2.3H8.8v2.3h2.3v2.3h2.3V7.5h2.3V5.2h-2.3V2.9z"/>
</svg>
